<?xml version="1.0" standalone="no"?><!DOCTYPE svg PUBLIC "-//W3C//DTD SVG 1.1//EN" "http://www.w3.org/Graphics/SVG/1.1/DTD/svg11.dtd"><svg t="1782389970509" class="icon" viewBox="0 0 1024 1024" version="1.1" xmlns="http://www.w3.org/2000/svg" p-id="2758" xmlns:xlink="http://www.w3.org/1999/xlink" width="200" height="200"><path d="M725.333333 352a288 288 0 0 1 261.461334 408.917333c-13.056 28.16-17.706667 38.869333-13.226667 54.485334 1.194667 4.053333 3.029333 7.637333 7.082667 16.597333 3.285333 7.253333 8.234667 18.688 9.301333 31.872a57.6 57.6 0 0 1-66.858667 61.525333c-22.613333-3.754667-42.069333-15.573333-50.730666-19.712-9.386667-4.437333-15.402667-6.058667-25.173334-3.754666l-2.005333 0.597333a283.733333 283.733333 0 0 0-6.741333 2.261333c-5.802667 2.005333-13.909333 4.949333-24.96 8.874667A257.28 257.28 0 0 1 725.333333 928a288 288 0 0 1-249.472-432.042667 32 32 0 0 1 55.466667 32.085334A224 224 0 0 0 725.333333 864c25.941333 0 47.232-3.669333 66.56-10.581333 20.437333-7.296 34.090667-12.245333 40.618667-13.781334 29.098667-6.826667 50.602667 0.298667 67.328 8.234667 10.752 5.12 16.981333 8.618667 22.656 11.050667l-0.213333-0.597334c-2.261333-5.034667-7.424-15.36-10.282667-25.258666-12.16-42.368 5.802667-75.648 16.64-99.072a224 224 0 0 0-278.058667-305.237334 32 32 0 0 1-21.290666-60.330666A287.573333 287.573333 0 0 1 725.333333 352z m-277.333333-298.666667a394.453333 394.453333 0 0 1 334.890667 185.728 32 32 0 0 1-54.314667 33.877334 330.666667 330.666667 0 1 0-580.778667 313.813333c15.829333 34.218667 38.528 76.629333 22.869334 131.114667-3.669333 12.8-10.325333 26.026667-13.909334 33.962666-4.352 9.642667-6.229333 15.36-6.570666 19.669334a4.266667 4.266667 0 0 0 4.949333 4.565333c17.834667-2.986667 28.373333-10.624 51.328-21.504 22.186667-10.538667 49.365333-19.498667 86.613333-10.752 8.234667 1.92 26.453333 8.490667 56.064 19.072 12.672 4.522667 25.813333 8.106667 39.722667 10.666667a32 32 0 1 1-11.690667 62.976 321.706667 321.706667 0 0 1-49.621333-13.397334c-15.616-5.546667-27.093333-9.685333-35.413333-12.586666a455.68 455.68 0 0 0-12.672-4.181334l-0.810667-0.213333-0.256-0.042667c-17.834667-4.224-29.568-0.853333-44.458667 6.229334-14.08 6.698667-38.698667 21.888-68.266666 26.837333a68.266667 68.266667 0 0 1-79.317334-72.917333c1.365333-16.213333 7.466667-30.634667 12.074667-40.789334 5.333333-11.861333 8.704-18.346667 10.666667-25.258666 7.978667-27.733333-1.365333-47.616-19.370667-86.528A394.666667 394.666667 0 0 1 448 53.333333z" p-id="2759"></path></svg>